<?xml version="1.0" encoding="utf-8"?>
<!-- Generator: Adobe Illustrator 19.2.1, SVG Export Plug-In . SVG Version: 6.00 Build 0)  -->
<!DOCTYPE svg PUBLIC "-//W3C//DTD SVG 1.1//EN" "http://www.w3.org/Graphics/SVG/1.1/DTD/svg11.dtd">
<svg version="1.1" id="Layer_1" xmlns="http://www.w3.org/2000/svg" xmlns:xlink="http://www.w3.org/1999/xlink" x="0px" y="0px"
	 width="66px" height="56px" viewBox="0 0 66 56" style="enable-background:new 0 0 66 56;" xml:space="preserve">
<style type="text/css">
	.st0{opacity:0.44;fill:#79ACC5;}
	.st1{fill:#FFFFFF;}
	.st2{fill:#114E6B;}
	.st3{fill:#FFDD15;}
</style>
<g>
	<path id="XMLID_785_" class="st0" d="M6.2,4.6c-1.1,0-2.1,0.9-2.1,2.1v43.3c0,1.1,0.9,2.1,2.1,2.1h53.6c1.1,0,2.1-0.9,2.1-2.1V6.6
		c0-1.1-0.9-2.1-2.1-2.1H6.2z"/>
	<g id="XMLID_775_">
		<g id="XMLID_777_">
			<path id="XMLID_782_" class="st1" d="M59.8,56.1H6.2c-3.4,0-6.2-2.8-6.2-6.2V6.6c0-3.4,2.8-6.2,6.2-6.2h53.6
				c3.4,0,6.2,2.8,6.2,6.2v43.3C66,53.3,63.2,56.1,59.8,56.1z M6.2,4.6c-1.1,0-2.1,0.9-2.1,2.1v43.3c0,1.1,0.9,2.1,2.1,2.1h53.6
				c1.1,0,2.1-0.9,2.1-2.1V6.6c0-1.1-0.9-2.1-2.1-2.1H6.2z"/>
			<path id="XMLID_781_" class="st1" d="M63.9,16.9H2.1C0.9,16.9,0,16,0,14.9s0.9-2.1,2.1-2.1h61.9c1.1,0,2.1,0.9,2.1,2.1
				S65.1,16.9,63.9,16.9z"/>
			<path id="XMLID_780_" class="st1" d="M10.3,16.9c-0.5,0-1.1-0.2-1.5-0.6c-0.8-0.8-0.8-2.1,0-2.9L21.2,1c0.8-0.8,2.1-0.8,2.9,0
				s0.8,2.1,0,2.9L11.8,16.3C11.4,16.7,10.8,16.9,10.3,16.9z"/>
			<path id="XMLID_779_" class="st1" d="M26.8,16.9c-0.5,0-1.1-0.2-1.5-0.6c-0.8-0.8-0.8-2.1,0-2.9L37.7,1c0.8-0.8,2.1-0.8,2.9,0
				s0.8,2.1,0,2.9L28.3,16.3C27.9,16.7,27.3,16.9,26.8,16.9z"/>
			<path id="XMLID_778_" class="st1" d="M43.3,16.9c-0.5,0-1.1-0.2-1.5-0.6c-0.8-0.8-0.8-2.1,0-2.9L54.2,1c0.8-0.8,2.1-0.8,2.9,0
				s0.8,2.1,0,2.9L44.8,16.3C44.4,16.7,43.8,16.9,43.3,16.9z"/>
		</g>
	</g>
	<g id="XMLID_832_">
		<path id="XMLID_835_" class="st2" d="M33,21.2c-7.4,0-13.3,6-13.3,13.3s6,13.3,13.3,13.3c7.4,0,13.3-6,13.3-13.3
			S40.4,21.2,33,21.2z M29.5,40.7V28.3l10.6,6.2L29.5,40.7z"/>
		<polygon id="XMLID_834_" class="st3" points="29.5,40.7 29.5,28.3 40.1,34.5 		"/>
	</g>
</g>
</svg>
