<?xml version="1.0" encoding="UTF-8" ?>
<!DOCTYPE svg PUBLIC "-//W3C//DTD SVG 1.1//EN" "http://www.w3.org/Graphics/SVG/1.1/DTD/svg11.dtd">
<svg width="1000pt" height="331pt" viewBox="0 0 1000 331" version="1.1" xmlns="http://www.w3.org/2000/svg">
<path fill="#fefefe" d=" M 0.00 0.00 L 1000.00 0.00 L 1000.00 331.00 L 0.00 331.00 L 0.00 0.00 Z" />
<path fill="#0379c2" d=" M 54.68 63.19 C 56.22 52.40 59.99 42.11 64.45 32.23 C 63.21 43.19 68.36 53.55 74.85 62.01 C 82.70 72.49 93.15 80.55 102.49 89.61 C 121.56 107.86 139.97 127.62 151.69 151.53 C 160.59 169.43 164.39 190.22 160.07 209.92 C 155.34 232.77 140.71 252.32 123.26 267.26 C 111.60 277.25 98.53 285.53 84.75 292.28 C 95.52 282.76 105.36 271.91 111.95 259.02 C 118.85 245.78 122.31 230.27 119.30 215.46 C 116.75 202.64 109.83 191.25 102.28 180.78 C 90.59 164.71 77.29 149.67 67.88 132.06 C 56.49 111.24 51.28 86.78 54.68 63.19 Z" />
<path fill="#071921" d=" M 489.04 47.99 C 502.01 40.73 517.65 39.41 532.06 42.26 C 541.49 44.13 550.63 48.92 556.35 56.83 C 562.11 64.66 564.03 74.56 564.35 84.09 C 553.79 84.06 543.23 84.07 532.67 84.09 C 532.67 79.64 532.01 74.70 528.55 71.53 C 524.63 67.93 518.88 67.70 513.87 68.34 C 507.31 69.33 501.85 74.01 498.63 79.64 C 493.56 88.43 491.81 98.88 492.54 108.92 C 493.07 115.33 495.37 122.47 501.36 125.76 C 507.92 129.07 516.75 128.33 522.12 123.09 C 525.60 119.87 527.24 115.30 528.60 110.89 C 539.56 110.93 550.52 110.93 561.48 110.88 C 559.15 124.73 551.85 138.16 539.84 145.86 C 526.94 154.25 510.77 156.03 495.78 154.13 C 482.95 152.41 470.74 144.79 464.88 133.04 C 457.30 118.05 457.44 100.15 461.64 84.19 C 465.70 69.24 475.29 55.49 489.04 47.99 Z" />
<path fill="#071921" d=" M 624.55 41.81 C 637.52 39.87 651.38 40.76 663.34 46.47 C 673.21 51.13 680.33 60.53 683.00 71.02 C 686.32 84.12 685.69 98.12 681.89 111.04 C 677.56 125.71 668.01 139.02 654.71 146.78 C 640.73 155.12 623.47 156.59 607.79 153.07 C 597.03 150.64 586.87 144.33 581.20 134.69 C 574.47 123.45 573.58 109.72 575.11 96.98 C 577.03 81.02 584.34 65.41 596.66 54.86 C 604.52 48.04 614.31 43.56 624.55 41.81 Z" />
<path fill="#071921" d=" M 303.88 43.43 C 314.84 43.51 325.81 43.49 336.78 43.44 C 342.49 79.72 348.01 116.03 353.77 152.31 C 342.77 152.26 331.77 152.28 320.77 152.30 C 320.20 147.10 319.48 141.92 319.00 136.72 C 307.20 136.64 295.39 136.79 283.59 136.64 C 280.64 141.80 277.94 147.09 275.07 152.29 C 263.64 152.30 252.20 152.24 240.78 152.33 C 261.90 116.08 282.80 79.71 303.88 43.43 Z" />
<path fill="#071921" d=" M 367.98 43.48 C 399.31 43.47 430.64 43.48 461.97 43.47 C 459.94 52.77 458.05 62.09 456.12 71.41 C 446.06 71.37 436.00 71.42 425.94 71.38 C 420.34 98.35 414.76 125.33 409.17 152.30 C 397.96 152.28 386.75 152.25 375.54 152.32 C 381.31 125.37 386.62 98.33 392.47 71.40 C 382.36 71.38 372.25 71.40 362.14 71.40 C 364.16 62.11 366.06 52.79 367.98 43.48 Z" />
<path fill="#0379c2" d=" M 752.99 53.94 C 763.95 50.45 775.98 50.06 787.13 52.92 C 795.38 55.10 803.07 60.03 807.67 67.32 C 811.60 73.50 813.03 80.88 813.32 88.10 C 803.74 88.10 794.16 88.05 784.58 88.13 C 783.76 83.86 782.22 79.02 777.88 77.12 C 770.76 74.14 761.91 75.87 756.43 81.32 C 750.35 87.23 747.62 95.72 746.59 103.94 C 745.96 110.31 745.69 117.27 749.10 122.97 C 751.51 127.10 756.18 129.48 760.86 129.79 C 766.15 130.17 771.94 129.67 776.30 126.31 C 778.81 124.50 780.34 121.73 781.71 119.01 C 777.04 119.15 772.37 119.10 767.70 119.13 C 769.24 112.02 770.64 104.88 772.22 97.79 C 785.70 97.80 799.19 97.84 812.68 97.76 C 808.91 115.96 805.13 134.15 801.29 152.32 C 794.86 152.25 788.44 152.31 782.02 152.29 C 782.31 148.97 782.60 145.65 782.86 142.33 C 778.03 148.52 770.96 152.86 763.16 154.03 C 752.11 155.68 739.97 154.06 730.86 147.21 C 722.25 140.77 717.61 130.27 716.18 119.85 C 714.59 106.54 717.01 92.73 722.83 80.67 C 728.82 68.23 739.75 58.14 752.99 53.94 Z" />
<path fill="#fefefe" d=" M 629.41 68.60 C 634.83 67.55 641.11 67.77 645.52 71.52 C 650.18 75.53 651.60 82.04 651.59 87.94 C 651.46 97.77 649.52 107.90 644.31 116.38 C 640.94 121.93 635.41 126.39 628.88 127.41 C 623.75 128.19 617.94 127.68 613.90 124.10 C 609.63 120.40 608.17 114.50 608.08 109.05 C 607.91 99.41 609.67 89.54 614.30 81.00 C 617.49 75.16 622.75 70.07 629.41 68.60 Z" />
<path fill="#0379c2" d=" M 836.46 85.34 C 842.87 80.40 851.20 79.02 859.08 78.64 C 866.95 78.41 874.94 78.65 882.59 80.68 C 887.48 82.01 892.40 84.34 895.44 88.55 C 898.05 92.10 898.51 96.75 897.98 101.01 C 896.70 112.15 893.99 123.07 891.66 134.03 C 890.47 140.04 888.16 146.29 890.48 152.35 C 881.49 152.24 872.51 152.27 863.53 152.33 C 862.99 150.01 862.68 147.66 862.62 145.28 C 856.67 151.76 847.53 154.24 838.98 154.09 C 832.23 153.87 824.87 151.97 820.50 146.44 C 816.08 140.74 816.22 132.78 818.22 126.17 C 819.97 120.22 824.97 115.80 830.59 113.53 C 839.23 109.99 848.71 109.37 857.94 109.07 C 861.78 108.77 865.99 108.64 869.25 106.31 C 872.58 103.99 872.76 98.03 869.01 96.03 C 865.54 94.28 861.31 94.51 857.72 95.73 C 854.80 96.73 853.29 99.57 852.10 102.20 C 843.51 102.20 834.93 102.18 826.35 102.21 C 828.00 95.78 830.99 89.37 836.46 85.34 Z" />
<path fill="#0379c2" d=" M 923.09 83.13 C 932.30 78.57 942.92 78.12 953.00 78.84 C 960.52 79.52 968.72 81.20 974.07 86.99 C 977.65 90.82 978.49 96.28 978.37 101.34 C 970.20 101.34 962.04 101.30 953.88 101.36 C 954.63 93.57 943.73 91.63 939.02 96.04 C 936.43 98.60 937.46 103.85 941.28 104.51 C 949.38 106.09 957.92 106.71 965.34 110.67 C 969.06 112.61 972.12 115.93 973.34 120.00 C 975.85 128.39 973.85 138.25 967.44 144.41 C 960.46 151.17 950.47 153.57 941.03 154.02 C 930.77 154.27 919.44 153.60 911.03 147.02 C 905.42 142.74 903.39 135.43 903.54 128.64 C 911.93 128.71 920.31 128.66 928.70 128.67 C 929.21 131.26 929.57 134.39 932.12 135.85 C 935.54 137.48 939.76 137.68 943.29 136.23 C 946.45 134.93 948.29 130.09 945.45 127.60 C 942.47 125.36 938.58 125.08 935.05 124.38 C 928.01 123.23 920.15 122.53 914.84 117.20 C 909.70 112.30 909.46 104.45 910.94 97.94 C 912.44 91.45 917.15 86.02 923.09 83.13 Z" />
<path fill="#fefefe" d=" M 295.59 113.45 C 301.51 102.57 306.81 91.35 312.92 80.57 C 313.96 91.54 315.29 102.48 316.54 113.43 C 309.55 113.38 302.57 113.34 295.59 113.45 Z" />
<path fill="#767d84" d=" M 44.93 118.06 C 46.67 111.67 46.79 105.04 47.45 98.49 C 54.68 110.20 61.04 122.62 64.32 136.06 C 67.20 147.46 67.60 159.43 65.84 171.05 C 63.13 190.18 55.00 208.47 55.53 228.05 C 56.01 251.20 67.07 273.18 83.21 289.42 C 62.20 277.56 42.54 262.31 28.48 242.50 C 19.13 229.31 13.13 213.27 14.11 196.93 C 14.49 184.18 18.44 171.74 24.56 160.61 C 32.06 146.80 41.39 133.61 44.93 118.06 Z" />
<path fill="#fefefe" d=" M 850.16 124.21 C 856.08 123.06 862.32 123.16 867.90 120.52 C 866.58 126.59 864.94 134.03 858.62 136.80 C 854.67 138.26 849.62 138.52 846.13 135.86 C 842.28 132.10 845.22 125.25 850.16 124.21 Z" />
<path fill="#767d84" d=" M 91.53 179.40 C 88.77 174.54 85.65 169.91 82.95 165.02 C 93.27 178.66 104.80 191.92 111.07 208.06 C 117.05 223.37 114.62 240.86 107.26 255.25 C 102.11 265.09 95.50 274.35 87.21 281.78 C 97.62 268.40 103.91 251.93 104.98 235.01 C 106.33 215.64 100.80 196.29 91.53 179.40 Z" />
<path fill="#071921" d=" M 240.88 186.24 C 488.17 186.24 735.47 186.32 982.76 186.20 C 982.80 186.97 982.87 188.50 982.91 189.27 C 735.56 189.27 488.22 189.27 240.88 189.27 C 240.88 188.51 240.88 187.00 240.88 186.24 Z" />
<path fill="#071921" d=" M 453.38 234.34 C 461.69 229.56 472.02 229.90 481.11 231.94 C 488.25 233.51 494.18 239.45 494.85 246.86 C 490.96 246.92 487.07 246.88 483.19 246.86 C 482.39 243.49 479.99 240.57 476.59 239.60 C 471.68 238.18 466.05 238.11 461.38 240.37 C 457.56 242.13 456.92 248.28 461.06 250.06 C 470.53 253.96 481.75 251.75 490.73 257.21 C 498.45 261.77 498.13 274.09 491.33 279.34 C 485.08 284.23 476.71 284.96 469.05 284.71 C 462.29 284.44 454.88 283.12 449.96 278.07 C 446.91 275.09 445.95 270.77 445.54 266.69 C 449.43 266.69 453.32 266.70 457.21 266.67 C 457.68 269.40 458.60 272.29 461.01 273.93 C 465.62 277.06 471.58 277.02 476.89 276.32 C 480.31 275.78 484.26 273.80 484.72 269.99 C 485.26 267.07 482.89 264.60 480.30 263.74 C 471.18 260.54 460.70 261.94 452.23 256.73 C 444.33 251.85 445.57 238.72 453.38 234.34 Z" />
<path fill="#071921" d=" M 305.55 233.83 C 305.88 233.38 306.54 232.48 306.87 232.04 C 310.95 231.93 315.05 232.21 319.14 231.95 C 326.92 249.04 334.36 266.29 342.17 283.36 C 338.12 283.33 334.07 283.34 330.03 283.34 C 328.21 279.10 326.40 274.87 324.63 270.61 C 316.63 270.57 308.62 270.69 300.62 270.54 C 298.72 274.78 297.02 279.10 295.18 283.37 C 291.25 283.32 287.33 283.32 283.40 283.39 C 290.91 266.93 298.15 250.34 305.55 233.83 Z" />
<path fill="#071921" d=" M 367.75 231.95 C 371.35 232.10 374.97 232.08 378.58 232.00 C 378.61 242.32 378.55 252.65 378.60 262.98 C 378.66 266.55 379.14 270.49 381.76 273.17 C 384.61 276.16 389.02 276.71 392.95 276.72 C 396.91 276.72 401.34 276.08 404.16 273.01 C 406.93 270.06 407.20 265.74 407.27 261.91 C 407.26 251.95 407.26 241.99 407.26 232.03 C 410.87 232.06 414.48 232.06 418.10 232.07 C 418.07 242.04 418.11 252.01 418.09 261.97 C 418.02 267.43 417.45 273.42 413.67 277.70 C 409.08 283.01 401.68 284.52 394.98 284.72 C 387.65 284.92 379.56 284.27 373.73 279.34 C 369.30 275.58 367.90 269.54 367.79 263.98 C 367.69 253.30 367.79 242.63 367.75 231.95 Z" />
<path fill="#071921" d=" M 519.33 231.95 C 535.73 232.14 552.15 232.15 568.55 231.95 C 568.59 234.68 568.59 237.41 568.60 240.14 C 562.19 240.08 555.79 240.20 549.38 240.04 C 549.31 254.49 549.34 268.93 549.37 283.37 C 545.75 283.32 542.12 283.33 538.51 283.36 C 538.55 268.92 538.58 254.47 538.50 240.02 C 532.09 240.23 525.68 240.07 519.27 240.13 C 519.28 237.40 519.29 234.68 519.33 231.95 Z" />
<path fill="#071921" d=" M 595.35 232.07 C 606.56 232.07 617.78 232.04 628.99 232.09 C 633.96 232.13 639.54 233.22 642.75 237.36 C 647.61 244.06 645.56 255.74 636.95 258.25 C 639.30 259.29 641.79 260.63 642.79 263.17 C 645.58 269.62 642.83 277.14 646.31 283.43 C 642.40 283.28 638.48 283.31 634.58 283.40 C 632.61 278.29 634.28 272.62 632.32 267.53 C 631.39 264.98 628.84 263.26 626.15 263.20 C 619.52 262.94 612.88 263.24 606.25 263.05 C 606.19 269.82 606.22 276.59 606.23 283.36 C 602.61 283.32 599.00 283.33 595.38 283.37 C 595.40 266.27 595.46 249.17 595.35 232.07 Z" />
<path fill="#071921" d=" M 669.56 283.40 C 677.37 266.29 684.79 249.01 692.64 231.92 C 696.84 232.13 701.06 232.13 705.27 231.94 C 713.05 249.04 720.52 266.28 728.29 283.38 C 724.24 283.31 720.19 283.35 716.15 283.33 C 714.37 279.09 712.52 274.88 710.79 270.62 C 702.78 270.56 694.76 270.69 686.75 270.55 C 684.86 274.79 683.15 279.12 681.30 283.39 C 677.38 283.31 673.47 283.31 669.56 283.40 Z" />
<path fill="#071921" d=" M 754.39 283.41 C 754.37 266.24 754.25 249.07 754.45 231.90 C 758.02 232.10 761.60 232.12 765.18 231.94 C 765.18 246.25 765.15 260.55 765.19 274.86 C 775.59 274.75 785.98 274.86 796.38 274.79 C 796.35 277.65 796.35 280.51 796.39 283.37 C 782.39 283.34 768.39 283.27 754.39 283.41 Z" />
<path fill="#071921" d=" M 823.85 231.94 C 827.44 232.10 831.04 232.11 834.64 231.95 C 834.70 249.09 834.61 266.23 834.68 283.37 C 831.06 283.33 827.44 283.33 823.83 283.36 C 823.86 266.22 823.83 249.08 823.85 231.94 Z" />
<path fill="#071921" d=" M 860.72 283.38 C 868.52 266.28 875.96 249.03 883.77 231.94 C 887.95 232.13 892.15 232.14 896.34 231.90 C 904.28 248.96 911.63 266.29 919.47 283.40 C 915.44 283.31 911.40 283.31 907.38 283.39 C 905.50 279.15 903.72 274.87 901.91 270.61 C 893.90 270.59 885.89 270.64 877.88 270.58 C 876.03 274.83 874.31 279.13 872.47 283.38 C 868.55 283.31 864.63 283.32 860.72 283.38 Z" />
<path fill="#fefefe" d=" M 606.28 240.03 C 612.89 240.26 619.50 240.00 626.11 240.17 C 628.83 240.18 631.92 241.14 633.22 243.75 C 635.05 247.69 633.84 253.95 628.83 254.63 C 621.35 255.55 613.77 254.84 606.25 255.07 C 606.20 250.06 606.17 245.04 606.28 240.03 Z" />
<path fill="#fefefe" d=" M 880.99 262.56 C 884.15 255.42 886.92 248.11 890.01 240.94 C 892.79 248.22 895.78 255.41 898.74 262.62 C 892.82 262.49 886.91 262.57 880.99 262.56 Z" />
<path fill="#fefefe" d=" M 303.69 262.60 C 306.85 255.47 309.52 248.13 312.77 241.05 C 315.51 248.30 318.49 255.46 321.47 262.62 C 315.54 262.50 309.61 262.53 303.69 262.60 Z" />
<path fill="#fefefe" d=" M 689.82 262.57 C 692.99 255.43 695.74 248.10 698.87 240.95 C 701.61 248.24 704.63 255.42 707.58 262.62 C 701.66 262.48 695.74 262.56 689.82 262.57 Z" />
</svg>
