<?xml version="1.0" encoding="utf-8"?>
<!-- Generator: Adobe Illustrator 21.0.2, SVG Export Plug-In . SVG Version: 6.00 Build 0)  -->
<!DOCTYPE svg PUBLIC "-//W3C//DTD SVG 1.1//EN" "http://www.w3.org/Graphics/SVG/1.1/DTD/svg11.dtd">
<svg version="1.1" id="Layer_1" xmlns="http://www.w3.org/2000/svg" xmlns:xlink="http://www.w3.org/1999/xlink" x="0px" y="0px"
	 width="269px" height="160px" viewBox="0 0 269 160" style="enable-background:new 0 0 269 160;" xml:space="preserve">
<style type="text/css">
	.st0{clip-path:url(#SVGID_2_);fill:#FFFFFF;}
	.st1{clip-path:url(#SVGID_2_);fill:#C9DFF3;}
	.st2{clip-path:url(#SVGID_2_);fill:#E9CF01;}
</style>
<g>
	<defs>
		<rect id="SVGID_1_" y="1" width="269" height="158"/>
	</defs>
	<clipPath id="SVGID_2_">
		<use xlink:href="#SVGID_1_"  style="overflow:visible;"/>
	</clipPath>
	<path class="st0" d="M223.7,51.4C222,24.8,199.9,3.7,172.9,3.7c-16.3,0-30.7,7.6-40.1,19.5C123.6,9.8,108.2,1,90.7,1
		c-28.2,0-51,22.8-51,51c0,0.9,0.1,1.7,0.1,2.6C17.1,59.7,0,80,0,104.4c0,28.2,22.8,51,51,51c14.7,0,28-6.3,37.3-16.3
		c9.3,12.1,23.9,19.9,40.4,19.9c17.6,0,33.1-8.9,42.3-22.5c9.8,13.6,25.8,22.5,43.9,22.5c29.9,0,54.2-24.3,54.2-54.2
		C269,77.9,249.4,55.7,223.7,51.4"/>
	<path class="st1" d="M231.5,145c-0.7,0-1.4-0.6-1.4-1.3c0-0.7,0.5-1.4,1.3-1.5c13.3-1.4,24-12.1,25.4-25.4c0.1-0.7,0.7-1.3,1.5-1.3
		c0.7,0,1.3,0.7,1.3,1.4C259.4,132.4,246.8,145,231.5,145L231.5,145z"/>
	<path class="st2" d="M95.5,97.5c0,7.4-6,13.4-13.4,13.4s-13.4-6-13.4-13.4c0-7.4,6-13.4,13.4-13.4S95.5,90.1,95.5,97.5"/>
	<path class="st0" d="M91,97.5c0,4.8-3.9,8.8-8.8,8.8s-8.8-3.9-8.8-8.8c0-4.8,3.9-8.8,8.8-8.8S91,92.7,91,97.5"/>
	<path class="st2" d="M33.1,97.5c0,7.4-6,13.4-13.4,13.4s-13.4-6-13.4-13.4c0-7.4,6-13.4,13.4-13.4S33.1,90.1,33.1,97.5"/>
	<path class="st0" d="M28.5,97.5c0,4.8-3.9,8.8-8.8,8.8s-8.8-3.9-8.8-8.8c0-4.8,3.9-8.8,8.8-8.8S28.5,92.7,28.5,97.5"/>
	<path class="st2" d="M76.8,85.6L76.8,85.6c-8.1-9.7-8-14.9-8-14.9c-2.4-0.8-6.1,2.1-6.1,2.1c-1-1.3,0-5.7,0-5.7
		c-6.7-1.3-13,4.6-14.4,4.6c-1.3,0,0-3.8,0-3.8c-14.2,2.9-21.9,16.4-21.9,16.4h0c-5.6,6-9.1,14-9.1,22.9c0,18.6,15.1,33.6,33.6,33.6
		c18.6,0,33.6-15.1,33.6-33.6C84.7,98.9,81.8,91.4,76.8,85.6"/>
	<path class="st0" d="M74.6,100.2c-1-2.1-2.7-3.8-4.8-4.9c-7-3.6-13.8-1.4-17.6,3.3c-0.7,0.9-2,0.9-2.7,0
		c-3.8-4.7-10.6-6.9-17.6-3.3c-2.1,1.1-3.8,2.8-4.8,4.8c-4.3,8.6,0,17,7.1,19.7c-0.6,1.4-1,2.8-1,4.4c0,7.5,7.9,13.6,17.6,13.6
		c9.7,0,17.6-6.1,17.6-13.6c0-1.5-0.4-2.9-1-4.3C74.5,117.4,79,108.9,74.6,100.2"/>
	<path class="st2" d="M47.1,121.8c-0.4,0-0.7-0.1-1-0.4c-0.5-0.5-0.5-1.4,0-1.9l1.5-1.5c0.5-0.5,1.4-0.5,1.9,0
		c0.5,0.5,0.5,1.4,0,1.9l-1.5,1.5C47.8,121.7,47.4,121.8,47.1,121.8"/>
	<path class="st2" d="M54.6,121.8c-0.4,0-0.7-0.1-1-0.4l-1.5-1.5c-0.5-0.5-0.5-1.4,0-1.9c0.5-0.5,1.4-0.5,1.9,0l1.5,1.5
		c0.5,0.5,0.5,1.4,0,1.9C55.3,121.7,54.9,121.8,54.6,121.8"/>
	<path class="st2" d="M50.8,130.6c-2.8,0-5.7-0.2-8.5-0.7c-1-0.2-1.7-1.1-1.5-2.1c0.2-1,1.1-1.7,2.1-1.5c5.3,0.8,10.6,0.8,15.9,0
		c1-0.2,1.9,0.5,2.1,1.5c0.2,1-0.5,1.9-1.5,2.1C56.5,130.4,53.7,130.6,50.8,130.6"/>
	<path class="st2" d="M47.8,94.7l-3.1,2.6l-0.2,0.2l-14.3,12.3c-0.5,0.5-0.6,1.3-0.1,1.8c0.5,0.5,1.3,0.6,1.8,0.1l14.3-12.3l0.2-0.2
		c0.6-0.5,1.5-0.5,2,0.1c0.5,0.6,0.4,1.5-0.2,2l-5.2,4.4l-6.7,5.7l-2.7,2.3c-0.5,0.5-0.6,1.3-0.1,1.8c0.5,0.5,1.3,0.6,1.8,0.1
		l2.7-2.3l6.7-5.7c0.6-0.5,1.5-0.4,2,0.2c0.5,0.6,0.4,1.5-0.2,2l-14.8,12.7c-4.2,3.6-10.5,3.1-14.1-1.1l-2.4-2.8
		c-2.2-2.6-2.2-7.1,0.1-12c1.5-3.3,6.2-11.6,6.2-11.7c0,0,0,0,0-0.1c0.3-0.6,1-0.9,1.6-0.6c0.6,0.3,0.9,1,0.6,1.6c0,0,0,0,0,0
		l-3.7,8.1l-0.1,0.2c-0.4,0.7-0.1,1.5,0.6,1.9c0.7,0.4,1.5,0.1,1.9-0.6l0.3-0.6l0,0l16.5-14.1c0.6-0.5,1.5-0.4,2,0.2
		c0.5,0.6,0.5,1.4,0,1.9l-0.4,0.3c0,0-0.1,0.1-0.1,0.1l-14.2,12.1c-0.5,0.5-0.6,1.3-0.1,1.8c0.5,0.5,1.3,0.6,1.8,0.1l14.6-12.5
		c0.1-0.1,0.2-0.1,0.2-0.2l2.8-2.4c0.6-0.5,1.6-0.5,2.1,0.2C48.5,93.2,48.5,94.2,47.8,94.7 M44.2,90.5L44,90.7
		c-0.2-0.5-0.4-0.9-0.7-1.2c-1.4-1.7-3.9-1.9-5.6-0.4l-13,11.1l1.4-3.1c0.9-1.9,0.1-4.1-1.8-5c-0.9-0.4-1.9-0.5-2.9-0.2
		c-0.9,0.3-1.7,1-2.1,1.9c-0.4,0.6-4.8,8.6-6.3,11.9c-1.3,2.7-1.9,5.5-1.9,7.9c0,2.6,0.7,5,2.2,6.7l0,0l2.4,2.8
		c4.5,5.2,12.4,5.8,17.7,1.3l14.8-12.7c1.7-1.4,1.9-3.9,0.4-5.6c-0.3-0.4-0.7-0.7-1.1-0.9l2.4-2c1.7-1.4,1.9-3.9,0.4-5.6
		c-0.3-0.4-0.8-0.7-1.1-0.9l0.3-0.2c1.7-1.5,1.9-4,0.4-5.7C48.5,89.3,45.9,89.1,44.2,90.5"/>
	<path class="st0" d="M47.8,94.7l-3.1,2.6l-0.2,0.2l-14.3,12.3c-0.5,0.5-0.6,1.3-0.1,1.8c0.5,0.5,1.3,0.6,1.8,0.1l14.3-12.3l0.2-0.2
		c0.6-0.5,1.5-0.5,2,0.1c0.5,0.6,0.4,1.5-0.2,2l-5.2,4.4l-6.7,5.7l-2.7,2.3c-0.5,0.5-0.6,1.3-0.1,1.8c0.5,0.5,1.3,0.6,1.8,0.1
		l2.7-2.3l6.7-5.7c0.6-0.5,1.5-0.4,2,0.2c0.5,0.6,0.4,1.5-0.2,2l-14.8,12.7c-4.2,3.6-10.5,3.1-14.1-1.1l-2.4-2.8
		c-2.2-2.6-2.2-7.1,0.1-12c1.5-3.3,6.2-11.6,6.2-11.7c0,0,0,0,0-0.1c0.3-0.6,1-0.9,1.6-0.6c0.6,0.3,0.9,1,0.6,1.6c0,0,0,0,0,0
		l-3.7,8.1l-0.1,0.2c-0.4,0.7-0.1,1.5,0.6,1.9c0.7,0.4,1.5,0.1,1.9-0.6l0.3-0.6l0,0l16.5-14.1c0.6-0.5,1.5-0.4,2,0.2
		c0.5,0.6,0.5,1.4,0,1.9l-0.4,0.3c0,0-0.1,0.1-0.1,0.1l-14.2,12.1c-0.5,0.5-0.6,1.3-0.1,1.8c0.5,0.5,1.3,0.6,1.8,0.1l14.6-12.5
		c0.1-0.1,0.2-0.1,0.2-0.2l2.8-2.4c0.6-0.5,1.6-0.5,2.1,0.2C48.5,93.2,48.5,94.2,47.8,94.7"/>
	<path class="st2" d="M53.9,92.6c0.5-0.6,1.5-0.7,2.1-0.2l2.8,2.4c0.1,0.1,0.2,0.1,0.2,0.2l14.6,12.5c0.5,0.5,1.3,0.4,1.8-0.1
		c0.5-0.5,0.4-1.3-0.1-1.8L61.2,93.4c0,0-0.1-0.1-0.1-0.1L60.7,93c-0.5-0.5-0.5-1.4,0-1.9c0.5-0.6,1.4-0.7,2-0.2L79.2,105l0,0
		l0.3,0.6c0.4,0.7,1.2,1,1.9,0.6c0.7-0.4,1-1.2,0.6-1.9l-0.1-0.2l-3.7-8.1c0,0,0,0,0,0c-0.3-0.6,0-1.3,0.6-1.6
		c0.6-0.3,1.3,0,1.6,0.6c0,0,0,0,0,0.1c0,0.1,4.7,8.5,6.2,11.7c2.2,4.9,2.3,9.4,0.1,12l-2.4,2.8c-3.6,4.2-9.9,4.7-14.1,1.1L55.4,110
		c-0.6-0.5-0.7-1.4-0.2-2s1.4-0.7,2-0.2l6.7,5.7l2.7,2.3c0.5,0.5,1.3,0.4,1.8-0.1c0.5-0.5,0.4-1.3-0.1-1.8l-2.7-2.3l-6.7-5.7
		l-5.2-4.4c-0.6-0.5-0.7-1.4-0.2-2c0.5-0.6,1.4-0.7,2-0.1l0.2,0.2l14.3,12.3c0.5,0.5,1.3,0.4,1.8-0.1c0.5-0.5,0.4-1.3-0.1-1.8
		L57.4,97.6l-0.2-0.2l-3.1-2.6C53.5,94.2,53.4,93.2,53.9,92.6 M52,91c-1.5,1.7-1.3,4.3,0.4,5.7l0.3,0.2c-0.4,0.2-0.8,0.5-1.1,0.9
		c-1.4,1.7-1.2,4.2,0.4,5.6l2.4,2c-0.4,0.2-0.8,0.5-1.1,0.9c-1.4,1.7-1.2,4.2,0.4,5.6l14.8,12.7c5.3,4.5,13.2,3.9,17.7-1.3l2.4-2.8
		l0,0c1.5-1.7,2.2-4.1,2.2-6.7c0-2.5-0.7-5.2-1.9-7.9c-1.5-3.3-5.9-11.3-6.3-11.9c-0.4-0.9-1.2-1.6-2.1-1.9c-0.9-0.3-2-0.3-2.9,0.2
		c-1.9,0.9-2.6,3.1-1.8,5l1.4,3.1L64.3,89c-1.7-1.4-4.2-1.2-5.6,0.4c-0.3,0.4-0.5,0.8-0.7,1.2l-0.2-0.2C56,89.1,53.5,89.3,52,91"/>
	<path class="st0" d="M53.9,92.6c0.5-0.6,1.5-0.7,2.1-0.2l2.8,2.4c0.1,0.1,0.2,0.1,0.2,0.2l14.6,12.5c0.5,0.5,1.3,0.4,1.8-0.1
		c0.5-0.5,0.4-1.3-0.1-1.8L61.2,93.4c0,0-0.1-0.1-0.1-0.1L60.7,93c-0.5-0.5-0.5-1.4,0-1.9c0.5-0.6,1.4-0.7,2-0.2L79.2,105l0,0
		l0.3,0.6c0.4,0.7,1.2,1,1.9,0.6c0.7-0.4,1-1.2,0.6-1.9l-0.1-0.2l-3.7-8.1c0,0,0,0,0,0c-0.3-0.6,0-1.3,0.6-1.6
		c0.6-0.3,1.3,0,1.6,0.6c0,0,0,0,0,0.1c0,0.1,4.7,8.5,6.2,11.7c2.2,4.9,2.3,9.4,0.1,12l-2.4,2.8c-3.6,4.2-9.9,4.7-14.1,1.1L55.4,110
		c-0.6-0.5-0.7-1.4-0.2-2c0.5-0.6,1.4-0.7,2-0.2l6.7,5.7l2.7,2.3c0.5,0.5,1.3,0.4,1.8-0.1c0.5-0.5,0.4-1.3-0.1-1.8l-2.7-2.3
		l-6.7-5.7l-5.2-4.4c-0.6-0.5-0.7-1.4-0.2-2c0.5-0.6,1.4-0.7,2-0.1l0.2,0.2l14.3,12.3c0.5,0.5,1.3,0.4,1.8-0.1
		c0.5-0.5,0.4-1.3-0.1-1.8L57.4,97.6l-0.2-0.2l-3.1-2.6C53.5,94.2,53.4,93.2,53.9,92.6"/>
</g>
</svg>
