<?xml version="1.0" encoding="utf-8"?>
<!-- Generator: Adobe Illustrator 19.2.1, SVG Export Plug-In . SVG Version: 6.00 Build 0)  -->
<!DOCTYPE svg PUBLIC "-//W3C//DTD SVG 1.1//EN" "http://www.w3.org/Graphics/SVG/1.1/DTD/svg11.dtd">
<svg version="1.1" id="Layer_1" xmlns="http://www.w3.org/2000/svg" xmlns:xlink="http://www.w3.org/1999/xlink" x="0px" y="0px"
	 width="269px" height="160px" viewBox="0 0 269 160" style="enable-background:new 0 0 269 160;" xml:space="preserve">
<style type="text/css">
	.st0{fill:#FFFFFF;}
	.st1{fill:#C9DFF3;}
</style>
<g>
	<path id="XMLID_900_" class="st0" d="M222.9,51.4c-1.7-26.7-23.6-47.9-50.4-47.9c-16.1,0-30.4,7.7-39.7,19.6
		C123.7,9.6,108.5,0.8,91.1,0.8c-27.9,0-50.5,22.9-50.5,51.2c0,0.9,0.1,1.7,0.1,2.6C18.2,59.7,1.3,80,1.3,104.4
		c0,28.3,22.6,51.2,50.5,51.2c14.6,0,27.7-6.3,36.9-16.3c9.2,12.1,23.7,20,40,20c17.4,0,32.8-9,41.9-22.6
		c9.7,13.7,25.6,22.6,43.5,22.6c29.6,0,53.6-24.3,53.6-54.3C267.7,77.9,248.3,55.6,222.9,51.4z"/>
	<path id="XMLID_896_" class="st1" d="M230.5,145.2c-0.7,0-1.3-0.6-1.4-1.3c0-0.8,0.5-1.4,1.2-1.5c13.2-1.4,23.7-12.1,25.1-25.4
		c0.1-0.7,0.7-1.3,1.5-1.3c0.7,0,1.3,0.7,1.3,1.4C258.2,132.6,245.8,145.2,230.5,145.2L230.5,145.2z"/>
</g>
</svg>
