<?xml version="1.0" encoding="utf-8"?>
<!-- Generator: Adobe Illustrator 21.0.2, SVG Export Plug-In . SVG Version: 6.00 Build 0)  -->
<!DOCTYPE svg PUBLIC "-//W3C//DTD SVG 1.1//EN" "http://www.w3.org/Graphics/SVG/1.1/DTD/svg11.dtd">
<svg version="1.1" id="Layer_1" xmlns="http://www.w3.org/2000/svg" xmlns:xlink="http://www.w3.org/1999/xlink" x="0px" y="0px"
	 width="269px" height="160px" viewBox="0 0 269 160" style="enable-background:new 0 0 269 160;" xml:space="preserve">
<style type="text/css">
	.st0{clip-path:url(#SVGID_2_);fill:#EBCE00;}
	.st1{clip-path:url(#SVGID_2_);fill:#FFFFFF;}
	.st2{clip-path:url(#SVGID_6_);fill:#EBCE00;}
	.st3{clip-path:url(#SVGID_6_);fill:#FFFFFF;}
	.st4{clip-path:url(#SVGID_6_);fill:#C9DFF3;}
	.st5{fill:#11516C;}
	.st6{font-family:'MuseoSansRounded-900';}
	.st7{font-size:12.0774px;}
</style>
<g>
	<defs>
		<rect id="SVGID_1_" y="0.2" width="269" height="159.6"/>
	</defs>
	<clipPath id="SVGID_2_">
		<use xlink:href="#SVGID_1_"  style="overflow:visible;"/>
	</clipPath>
	<path class="st0" d="M269,31.5c0,7.5-6.9,13.7-15.5,13.7C245,45.2,238,39,238,31.5c0-7.5,6.9-13.7,15.5-13.7
		C262.1,17.9,269,24,269,31.5"/>
	<path class="st1" d="M263.7,31.5c0,5-4.6,9-10.2,9s-10.2-4-10.2-9c0-5,4.6-9,10.2-9S263.7,26.6,263.7,31.5"/>
	<path class="st0" d="M196.7,31.5c0,7.5-6.9,13.7-15.5,13.7c-8.6,0-15.5-6.1-15.5-13.7c0-7.5,6.9-13.7,15.5-13.7
		C189.7,17.9,196.7,24,196.7,31.5"/>
	<path class="st1" d="M191.3,31.5c0,5-4.6,9-10.2,9c-5.6,0-10.2-4-10.2-9c0-5,4.6-9,10.2-9C186.8,22.5,191.3,26.6,191.3,31.5"/>
	<path class="st0" d="M247.3,19.3L247.3,19.3C237.9,9.4,238,4.1,238,4.1c-2.7-0.8-7,2.2-7,2.2c-1.1-1.4,0-5.9,0-5.9
		c-7.8-1.4-15.1,4.7-16.7,4.7c-1.6,0,0-3.9,0-3.9C197.9,4.1,189,18,189,18l0,0c-6.5,6.1-10.5,14.3-10.5,23.4c0,19,17.4,34.3,39,34.3
		s39-15.4,39-34.3C256.5,33,253,25.3,247.3,19.3"/>
</g>
<g>
	<defs>
		<path id="SVGID_3_" d="M195.2,29.3c-2.4,1.1-4.4,2.8-5.6,5c-5,8.7-0.1,17.3,8.2,20.1c-0.7,1.4-1.2,2.9-1.2,4.5
			c0,7.7,9.1,13.9,20.4,13.9c11.2,0,20.4-6.2,20.4-13.9c0-1.5-0.5-3-1.1-4.4c8.4-2.6,13.6-11.3,8.5-20.1c-1.2-2.1-3.2-3.9-5.6-5
			c-8.1-3.7-16-1.5-20.4,3.4c-0.8,0.9-2.3,0.9-3.1,0c-2.9-3.2-7.3-5.2-12.2-5.2C200.8,27.5,198,28,195.2,29.3"/>
	</defs>
	<use xlink:href="#SVGID_3_"  style="overflow:visible;fill:#F9F9F9;"/>
	<clipPath id="SVGID_4_">
		<use xlink:href="#SVGID_3_"  style="overflow:visible;"/>
	</clipPath>
</g>
<g>
	<defs>
		<rect id="SVGID_5_" y="0.2" width="269" height="159.6"/>
	</defs>
	<clipPath id="SVGID_6_">
		<use xlink:href="#SVGID_5_"  style="overflow:visible;"/>
	</clipPath>
	<path class="st2" d="M212.8,56.3c-0.4,0-0.8-0.1-1.1-0.4c-0.6-0.5-0.6-1.4,0-2l1.8-1.6c0.6-0.5,1.6-0.5,2.3,0c0.6,0.5,0.6,1.4,0,2
		l-1.8,1.6C213.7,56.2,213.3,56.3,212.8,56.3"/>
	<path class="st2" d="M221.5,56.3c-0.4,0-0.8-0.1-1.1-0.4l-1.8-1.6c-0.6-0.5-0.6-1.4,0-2c0.6-0.5,1.6-0.5,2.3,0l1.8,1.6
		c0.6,0.5,0.6,1.4,0,2C222.3,56.2,221.9,56.3,221.5,56.3"/>
	<path class="st2" d="M217.2,65.3c-3.3,0-6.6-0.2-9.9-0.7c-1.2-0.2-2-1.1-1.8-2.1c0.2-1,1.3-1.7,2.4-1.6c6.1,0.9,12.3,0.9,18.4,0
		c1.2-0.2,2.3,0.5,2.4,1.6c0.2,1-0.6,2-1.8,2.1C223.8,65.1,220.5,65.3,217.2,65.3"/>
	<path class="st2" d="M210.5,41.4c0,3.4-3.1,6.2-7,6.2c-3.9,0-7-2.8-7-6.2c0-3.4,3.1-6.2,7-6.2C207.3,35.2,210.5,38,210.5,41.4"/>
	<path class="st3" d="M203.5,39.8c0,0.9-0.8,1.6-1.8,1.6c-1,0-1.8-0.7-1.8-1.6c0-0.9,0.8-1.6,1.8-1.6
		C202.7,38.2,203.5,38.9,203.5,39.8"/>
	<path class="st2" d="M237.8,41.4c0,3.4-3.1,6.2-7,6.2c-3.9,0-7-2.8-7-6.2c0-3.4,3.1-6.2,7-6.2C234.7,35.2,237.8,38,237.8,41.4"/>
	<path class="st3" d="M230.8,39.8c0,0.9-0.8,1.6-1.8,1.6c-1,0-1.8-0.7-1.8-1.6c0-0.9,0.8-1.6,1.8-1.6
		C230,38.2,230.8,38.9,230.8,39.8"/>
	<path class="st3" d="M214.6,68.9c-1.6-22.5-22.8-40.4-48.8-40.4c-15.6,0-29.5,6.5-38.4,16.5c-8.8-11.3-23.6-18.8-40.4-18.8
		c-27,0-48.9,19.3-48.9,43.1c0,0.7,0.1,1.5,0.1,2.2C16.4,75.9,0,93,0,113.6c0,23.8,21.9,43.1,48.9,43.1c14.1,0,26.8-5.3,35.8-13.8
		c8.9,10.2,22.9,16.8,38.7,16.8c16.9,0,31.8-7.6,40.6-19c9.4,11.5,24.8,19,42.1,19c28.7,0,52-20.5,52-45.8
		C258.1,91.3,239.3,72.5,214.6,68.9"/>
	<path class="st4" d="M222.1,148c-0.7,0-1.3-0.5-1.3-1.1c0-0.6,0.5-1.2,1.2-1.2c12.8-1.2,23-10.2,24.3-21.4c0.1-0.6,0.7-1.1,1.4-1.1
		c0.7,0,1.3,0.6,1.3,1.2C248.9,137.3,236.8,148,222.1,148L222.1,148z"/>
</g>
<text transform="matrix(1 0 0 1 110.0703 98.2558)" class="st5 st6 st7"> </text>
<g>
	<defs>
		<rect id="SVGID_7_" y="0.2" width="269" height="159.6"/>
	</defs>
	<clipPath id="SVGID_8_">
		<use xlink:href="#SVGID_7_"  style="overflow:visible;"/>
	</clipPath>
</g>
</svg>
