<?xml version="1.0" encoding="utf-8"?>
<!-- Generator: Adobe Illustrator 17.0.0, SVG Export Plug-In . SVG Version: 6.00 Build 0)  -->
<!DOCTYPE svg PUBLIC "-//W3C//DTD SVG 1.1//EN" "http://www.w3.org/Graphics/SVG/1.1/DTD/svg11.dtd">
<svg version="1.1" id="Layer_1" xmlns="http://www.w3.org/2000/svg" xmlns:xlink="http://www.w3.org/1999/xlink" x="0px" y="0px"
	 width="91.993px" height="127.874px" viewBox="0 0 91.993 127.874" enable-background="new 0 0 91.993 127.874"
	 xml:space="preserve">
<path fill="#78AB52" d="M48.7,107.792c-20.392,0-36.923,4.329-36.923,9.67s16.531,9.671,36.923,9.671s36.923-4.33,36.923-9.671
	S69.092,107.792,48.7,107.792"/>
<path fill="#2B2E30" d="M54.212,98.516v13.327c0.008,0.125-0.01,1.06,0.534,2.173c0.275,0.552,0.719,1.157,1.403,1.612
	c0.68,0.458,1.572,0.726,2.57,0.722h6.922c0.832,0,1.507-0.675,1.507-1.507c0-0.833-0.675-1.508-1.507-1.508h-6.922
	c-0.502-0.004-0.735-0.111-0.898-0.215c-0.122-0.082-0.215-0.181-0.3-0.313c-0.127-0.193-0.216-0.462-0.256-0.675
	c-0.021-0.106-0.031-0.196-0.036-0.251l-0.003-0.053v-0.002l-0.911,0.017h0.911v-0.017l-0.911,0.017h0.911V98.516
	c0-0.832-0.675-1.507-1.507-1.507S54.212,97.684,54.212,98.516z"/>
<path fill="#2B2E30" d="M82.343,55.339c0.088,0.073,2.316,1.88,4.55,5.37c2.231,3.485,4.465,8.682,4.464,15.417
	c0,0.306-0.005,0.615-0.014,0.927c-0.026,0.832-0.72,1.487-1.552,1.461c-0.832-0.025-1.486-0.72-1.461-1.552
	c0.008-0.281,0.012-0.56,0.012-0.836c-0.001-6.059-1.994-10.669-3.989-13.793c-0.997-1.559-1.993-2.74-2.731-3.521
	c-0.369-0.391-0.673-0.681-0.879-0.87c-0.104-0.095-0.182-0.163-0.232-0.206l-0.053-0.045l-0.01-0.008l0.263-0.322l-0.261,0.324
	l-0.002-0.002l0.263-0.322l-0.261,0.324c-0.647-0.523-0.749-1.472-0.226-2.119C80.746,54.918,81.695,54.816,82.343,55.339z"/>
<path fill="#DEDFDE" d="M44.731,104.684c22.584,0,40.892-16.469,40.892-45.212S65.327,0.797,44.731,0.596
	C24.135,0.395,3.839,30.729,3.839,59.472S22.147,104.684,44.731,104.684"/>
<g>
	<defs>
		<path id="SVGID_1_" d="M3.839,59.471c0,28.744,18.308,45.212,40.891,45.212c22.584,0,40.892-16.468,40.892-45.212
			c0-28.742-20.295-58.674-40.892-58.875c-0.068-0.001-0.136-0.001-0.204-0.001C24,0.594,3.839,30.824,3.839,59.471"/>
	</defs>
	<clipPath id="SVGID_2_">
		<use xlink:href="#SVGID_1_"  overflow="visible"/>
	</clipPath>
	<path clip-path="url(#SVGID_2_)" fill="#FFFFFF" d="M39.808,97.651c22.084,0,39.987-16.214,39.987-44.513
		c0-28.299-19.846-57.768-39.987-57.966C19.667-5.026-0.179,24.839-0.179,53.138C-0.179,81.437,17.724,97.651,39.808,97.651"/>
</g>
<path fill="#2B2E30" d="M9.323,62.318c-0.088,0.073-2.316,1.88-4.55,5.37c-2.231,3.485-4.465,8.682-4.464,15.417
	c0,0.306,0.005,0.615,0.014,0.927c0.026,0.832,0.72,1.486,1.552,1.461s1.486-0.72,1.461-1.552c-0.008-0.281-0.012-0.56-0.012-0.836
	c0.001-6.059,1.994-10.669,3.989-13.793c0.997-1.559,1.993-2.74,2.731-3.521c0.369-0.391,0.673-0.681,0.879-0.87
	c0.104-0.095,0.182-0.163,0.232-0.206l0.053-0.045l0.01-0.008l-0.263-0.322l0.261,0.324l0.002-0.002l-0.263-0.322l0.261,0.324
	c0.647-0.523,0.749-1.472,0.226-2.119C10.92,61.897,9.971,61.795,9.323,62.318z"/>
<path fill="#2B2E30" d="M44.262,50.636c1.72,0,3.115-1.394,3.115-3.115c0-1.72-1.395-3.114-3.115-3.114
	c-1.72,0-3.115,1.394-3.115,3.114C41.147,49.242,42.542,50.636,44.262,50.636"/>
<path fill="#2B2E30" d="M66.366,50.636c1.72,0,3.115-1.394,3.115-3.115c0-1.72-1.395-3.114-3.115-3.114
	c-1.72,0-3.115,1.394-3.115,3.114C63.251,49.242,64.646,50.636,66.366,50.636"/>
<path fill="#2B2E30" d="M56.419,72.438c4.069,0.575,5.978-1.349,5.978-3.014c0-1.665-2.676-3.014-5.978-3.014
	c-5.174,0-8.791,4.363-8.791,6.028C47.628,74.103,51.805,71.786,56.419,72.438"/>
<path fill="#DEDFDE" d="M52.551,59.283c1.22,2.074,3.753,3.1,6.137,2.326c2.755-0.895,4.262-3.854,3.367-6.609
	c-0.134-0.414-0.32-0.795-0.54-1.148c0.136,2.401-1.587,4.787-4.291,5.665C55.581,60.051,53.907,59.918,52.551,59.283"/>
<path fill="#2B2E30" d="M42.785,33.15c-3.408,0.61-6.241,2.034-7.753,3.845c-0.247,0.299-0.205,0.743,0.094,0.99
	c0.3,0.248,0.743,0.205,0.991-0.094c1.162-1.425,3.756-2.808,6.912-3.356c0.383-0.067,0.638-0.432,0.571-0.815
	C43.532,33.338,43.168,33.083,42.785,33.15z"/>
<path fill="#2B2E30" d="M65.538,37.571c2.727,0.483,5.084,1.503,6.693,2.807c0.302,0.245,0.347,0.688,0.102,0.989
	c-0.245,0.302-0.688,0.348-0.989,0.103c-1.359-1.109-3.526-2.071-6.05-2.514c-0.383-0.067-0.638-0.432-0.571-0.815
	C64.791,37.759,65.155,37.504,65.538,37.571z"/>
<path fill="#2B2E30" d="M31.833,97.966v17.471c0.008,0.126-0.01,1.061,0.534,2.174c0.275,0.552,0.719,1.156,1.403,1.611
	c0.68,0.458,1.572,0.726,2.57,0.722h6.922c0.832,0,1.507-0.675,1.507-1.507s-0.675-1.507-1.507-1.507H36.34
	c-0.502-0.005-0.735-0.111-0.898-0.216c-0.122-0.082-0.215-0.181-0.3-0.312c-0.127-0.193-0.216-0.463-0.256-0.676
	c-0.021-0.106-0.031-0.196-0.036-0.251l-0.003-0.053v-0.002l-0.911,0.017h0.911v-0.017l-0.911,0.017h0.911V97.966
	c0-0.832-0.675-1.507-1.507-1.507S31.833,97.134,31.833,97.966z"/>
</svg>
