<?xml version="1.0" encoding="utf-8"?>
<!-- Generator: Adobe Illustrator 19.2.1, SVG Export Plug-In . SVG Version: 6.00 Build 0)  -->
<!DOCTYPE svg PUBLIC "-//W3C//DTD SVG 1.1//EN" "http://www.w3.org/Graphics/SVG/1.1/DTD/svg11.dtd">
<svg version="1.1" id="Layer_1" xmlns="http://www.w3.org/2000/svg" xmlns:xlink="http://www.w3.org/1999/xlink" x="0px" y="0px"
	 width="49px" height="49px" viewBox="0 0 49 49" style="enable-background:new 0 0 49 49;" xml:space="preserve">
<style type="text/css">
	.st0{fill:#FFDD15;}
</style>
<g>
	<path id="XMLID_640_" class="st0" d="M24.5,49C11,49,0,38,0,24.5S11,0,24.5,0S49,11,49,24.5S38,49,24.5,49z M24.5,3.8
		c-11.4,0-20.7,9.3-20.7,20.7s9.3,20.7,20.7,20.7s20.7-9.3,20.7-20.7S35.9,3.8,24.5,3.8z"/>
	<path id="XMLID_679_" class="st0" d="M21.6,39.4l-7.3-8.5c-0.7-0.8-0.6-2,0.2-2.7c0.8-0.7,2-0.6,2.7,0.2l4.3,5l13.9-18
		c0.6-0.8,1.8-1,2.6-0.3c0.8,0.6,1,1.8,0.3,2.6L21.6,39.4z"/>
</g>
</svg>
