<?xml version="1.0" encoding="utf-8"?>
<!-- Generator: Adobe Illustrator 21.0.2, SVG Export Plug-In . SVG Version: 6.00 Build 0)  -->
<!DOCTYPE svg PUBLIC "-//W3C//DTD SVG 1.1//EN" "http://www.w3.org/Graphics/SVG/1.1/DTD/svg11.dtd">
<svg version="1.1" id="Layer_1" xmlns="http://www.w3.org/2000/svg" xmlns:xlink="http://www.w3.org/1999/xlink" x="0px" y="0px"
	 width="60px" height="42px" viewBox="0 0 60 42" style="enable-background:new 0 0 60 42;" xml:space="preserve">
<style type="text/css">
	.st0{fill:#EBCE00;}
	.st1{fill:#FFFFFF;}
</style>
<g>
	<path class="st0" d="M56.8,9.9l-3-3.9l0,0c-1.8-2.4-4.8-4-8.4-4.9C42,0.3,38,0.2,33.8,0.8c-5,0.7-17.5,3.4-18.5,3.6
		c-1.4,0.2-2.5,0.9-3.3,1.9c-0.8,1-1.1,2.3-0.8,3.5c0.6,2.5,3.4,4.2,6.2,3.8l4.7-0.7L8.7,21.1l0,0l-6.2,3.8
		c-2.6,1.6-3.3,4.6-1.5,6.9C2.7,34,6.3,34.5,8.8,33l6.6-4c0.1,0.6,0.4,1.2,0.9,1.8c1.2,1.5,3.1,2.3,5,2.1c0.1,0.9,0.4,1.8,1,2.6
		c1.5,1.9,4.1,2.6,6.4,1.9c0.1,0.7,0.4,1.4,0.9,2c1.8,2.3,5.3,2.9,7.9,1.3l8.8-5.3l0,0l6.1-3.7C60.4,26.9,62.4,17.1,56.8,9.9"/>
	<path class="st1" d="M53.9,11.7c4.5,5.7,2.9,13.5-3.5,17.4l-9,5.5l0,0.1l-1.5,0.9l-4.3,2.6c-1,0.6-2.3,0.4-3-0.5
		c-0.7-0.9-0.4-2,0.5-2.6l4.3-2.6l4.4-2.7l0,0c0.8-0.5,1-1.5,0.4-2.2c-0.6-0.7-1.6-0.9-2.4-0.4l-2.9,1.8l0,0l-4.4,2.7l-4.3,2.6
		c-1,0.6-2.3,0.4-3-0.5c-0.7-0.9-0.4-2,0.5-2.6l4.3-2.6l7.3-4.4l0,0c0.8-0.5,1-1.5,0.4-2.2c-0.6-0.7-1.6-0.9-2.4-0.4l-11.7,7.1
		c0,0-0.1,0.1-0.1,0.1l-1.5,0.9c-1,0.6-2.3,0.4-3-0.5c-0.7-0.9-0.4-2,0.6-2.6l4.3-2.6l8.9-5.4l0,0c0.8-0.5,1-1.5,0.4-2.2
		c-0.6-0.7-1.6-0.9-2.4-0.4c0,0-0.1,0-0.1,0.1l-13.2,8c0,0-0.1,0.1-0.1,0.1l-6.4,3.9l-4.3,2.6c-1,0.6-2.3,0.4-3-0.5
		c-0.7-0.8-0.4-2,0.6-2.6l4.3-2.6l1.9-1.1l0,0l18.7-11.3v0l0.9-0.2c1.1-0.2,1.7-1.1,1.5-2.1c-0.2-0.7-0.8-1.2-1.6-1.4
		c-0.3,0-0.5,0-0.8,0l-0.3,0l-12.3,1.8c0,0,0,0,0,0c-0.2,0-0.5,0-0.7,0c-0.7-0.1-1.2-0.6-1.3-1.2c-0.2-0.8,0.4-1.6,1.3-1.8
		c0,0,0.1,0,0.1,0c0.1,0,13.2-2.9,18.2-3.6c3.7-0.5,7.1-0.4,10,0.2c2.8,0.7,5.1,1.9,6.4,3.7L53.9,11.7z"/>
</g>
</svg>
