<?xml version="1.0" encoding="utf-8"?>
<!-- Generator: Adobe Illustrator 19.2.1, SVG Export Plug-In . SVG Version: 6.00 Build 0)  -->
<!DOCTYPE svg PUBLIC "-//W3C//DTD SVG 1.1//EN" "http://www.w3.org/Graphics/SVG/1.1/DTD/svg11.dtd">
<svg version="1.1" id="Layer_1" xmlns="http://www.w3.org/2000/svg" xmlns:xlink="http://www.w3.org/1999/xlink" x="0px" y="0px"
	 width="212px" height="124.5px" viewBox="0 0 212 124.5" style="enable-background:new 0 0 212 124.5;" xml:space="preserve">
<style type="text/css">
	.st0{fill:#41ACDB;}
	.st1{fill:#C9DFF3;}
	.st2{fill:#2190CF;}
</style>
<g>
	<g>
		<path id="XMLID_207_" class="st0" d="M176.3,39.7c-1.3-21-18.7-37.6-40.1-37.6c-12.8,0-24.2,6-31.6,15.4C97.4,6.9,85.3,0,71.5,0
			C49.3,0,31.3,18,31.3,40.2c0,0.7,0.1,1.4,0.1,2.1c-18,4-31.4,20-31.4,39.2c0,22.2,18,40.2,40.2,40.2c11.6,0,22-5,29.4-12.8
			c7.3,9.5,18.8,15.7,31.8,15.7c13.9,0,26.1-7,33.3-17.7c7.8,10.7,20.3,17.7,34.6,17.7c23.6,0,42.7-19.1,42.7-42.7
			C212,60.6,196.5,43.1,176.3,39.7z"/>
	</g>
	<g id="XMLID_204_">
		<path id="XMLID_206_" class="st1" d="M175.5,115.8c16-0.1,28.9-13,29-29C202.9,102.1,190.8,114.2,175.5,115.8z"/>
		<path id="XMLID_205_" class="st2" d="M175.5,117.4c-0.8,0-1.5-0.6-1.5-1.4c0-0.8,0.6-1.5,1.4-1.6c14.5-1.5,26.1-13.1,27.6-27.6
			c0.1-0.8,0.8-1.4,1.6-1.4c0.8,0,1.4,0.7,1.4,1.5C205.9,103.6,192.3,117.3,175.5,117.4L175.5,117.4z"/>
	</g>
</g>
</svg>
